HIERARCHY
ROOT Root
{
  OFFSET 0.0 0.0 0.0
  CHANNELS 6 Xposition Yposition Zposition Zrotation Yrotation Xrotation
  JOINT Hips
  {
    OFFSET 0.0 100.0 0.0
    CHANNELS 6 Xposition Yposition Zposition Zrotation Yrotation Xrotation
    JOINT Spine1
    {
      OFFSET 5.003913 -0.037094 -0.013727
      CHANNELS 3 Zrotation Yrotation Xrotation
      JOINT Spine2
      {
        OFFSET 7.125363 -1e-06 0.0
        CHANNELS 3 Zrotation Yrotation Xrotation
        JOINT Chest
        {
          OFFSET 7.594027 1e-06 0.0
          CHANNELS 3 Zrotation Yrotation Xrotation
          JOINT Neck1
          {
            OFFSET 26.313086 -0.460272 -0.181672
            CHANNELS 3 Zrotation Yrotation Xrotation
            JOINT Neck2
            {
              OFFSET 8.045911 0.0 0.0
              CHANNELS 3 Zrotation Yrotation Xrotation
              JOINT Head
              {
                OFFSET 6.432774 0.0 0.0
                CHANNELS 3 Zrotation Yrotation Xrotation
                JOINT HeadEnd
                {
                  OFFSET 16.169773 0.06451 0.00362
                  CHANNELS 3 Zrotation Yrotation Xrotation
                }
                JOINT Jaw
                {
                  OFFSET 0.108741 3.12938 0.002639
                  CHANNELS 3 Zrotation Yrotation Xrotation
                }
                JOINT LeftEye
                {
                  OFFSET 4.45173 8.166359 3.206392
                  CHANNELS 3 Zrotation Yrotation Xrotation
                }
                JOINT RightEye
                {
                  OFFSET 4.436895 8.135758 -3.222429
                  CHANNELS 3 Zrotation Yrotation Xrotation
                }
              }
            }
          }
          JOINT LeftShoulder
          {
            OFFSET 23.218927 5.195579 1.621656
            CHANNELS 3 Zrotation Yrotation Xrotation
            JOINT LeftArm
            {
              OFFSET 15.902118 2e-06 -2e-06
              CHANNELS 3 Zrotation Yrotation Xrotation
              JOINT LeftForeArm
              {
                OFFSET 28.739307 0.0 -1e-06
                CHANNELS 3 Zrotation Yrotation Xrotation
                JOINT LeftHand
                {
                  OFFSET 27.093981 -4e-06 0.0
                  CHANNELS 3 Zrotation Yrotation Xrotation
                  JOINT LeftHandThumb1
                  {
                    OFFSET 2.276781 3.380274 0.83384
                    CHANNELS 3 Zrotation Yrotation Xrotation
                    JOINT LeftHandThumb2
                    {
                      OFFSET 4.705309 -1e-06 -1e-06
                      CHANNELS 3 Zrotation Yrotation Xrotation
                      JOINT LeftHandThumb3
                      {
                        OFFSET 2.798515 0.0 3e-06
                        CHANNELS 3 Zrotation Yrotation Xrotation
                        JOINT LeftHandThumbEnd
                        {
                          OFFSET 3.180793 4e-06 -4e-06
                          CHANNELS 3 Zrotation Yrotation Xrotation
                        }
                      }
                    }
                  }
                  JOINT LeftHandIndex1
                  {
                    OFFSET 3.247786 2.352677 0.137192
                    CHANNELS 3 Zrotation Yrotation Xrotation
                    JOINT LeftHandIndex2
                    {
                      OFFSET 6.367095 1e-06 0.0
                      CHANNELS 3 Zrotation Yrotation Xrotation
                      JOINT LeftHandIndex3
                      {
                        OFFSET 3.662364 0.0 0.0
                        CHANNELS 3 Zrotation Yrotation Xrotation
                        JOINT LeftHandIndex4
                        {
                          OFFSET 2.329242 4e-06 -4e-06
                          CHANNELS 3 Zrotation Yrotation Xrotation
                          JOINT LeftHandIndexEnd
                          {
                            OFFSET 2.767823 1e-06 0.0
                            CHANNELS 3 Zrotation Yrotation Xrotation
                          }
                        }
                      }
                    }
                  }
                  JOINT LeftHandMiddle1
                  {
                    OFFSET 3.163612 0.945023 -0.406112
                    CHANNELS 3 Zrotation Yrotation Xrotation
                    JOINT LeftHandMiddle2
                    {
                      OFFSET 6.276789 3e-06 0.0
                      CHANNELS 3 Zrotation Yrotation Xrotation
                      JOINT LeftHandMiddle3
                      {
                        OFFSET 4.35652 -1e-06 4e-06
                        CHANNELS 3 Zrotation Yrotation Xrotation
                        JOINT LeftHandMiddle4
                        {
                          OFFSET 2.996877 0.0 8e-06
                          CHANNELS 3 Zrotation Yrotation Xrotation
                          JOINT LeftHandMiddleEnd
                          {
                            OFFSET 2.323256 3e-06 -4e-06
                            CHANNELS 3 Zrotation Yrotation Xrotation
                          }
                        }
                      }
                    }
                  }
                  JOINT LeftHandRing1
                  {
                    OFFSET 2.882606 -0.309162 0.107445
                    CHANNELS 3 Zrotation Yrotation Xrotation
                    JOINT LeftHandRing2
                    {
                      OFFSET 6.033198 0.0 4e-06
                      CHANNELS 3 Zrotation Yrotation Xrotation
                      JOINT LeftHandRing3
                      {
                        OFFSET 4.350578 3e-06 0.0
                        CHANNELS 3 Zrotation Yrotation Xrotation
                        JOINT LeftHandRing4
                        {
                          OFFSET 2.651321 2e-06 -7e-06
                          CHANNELS 3 Zrotation Yrotation Xrotation
                          JOINT LeftHandRingEnd
                          {
                            OFFSET 1.937663 1e-06 -4e-06
                            CHANNELS 3 Zrotation Yrotation Xrotation
                          }
                        }
                      }
                    }
                  }
                  JOINT LeftHandPinky1
                  {
                    OFFSET 2.865315 -1.525436 0.575687
                    CHANNELS 3 Zrotation Yrotation Xrotation
                    JOINT LeftHandPinky2
                    {
                      OFFSET 5.54936 1e-06 -8e-06
                      CHANNELS 3 Zrotation Yrotation Xrotation
                      JOINT LeftHandPinky3
                      {
                        OFFSET 3.070974 0.0 -4e-06
                        CHANNELS 3 Zrotation Yrotation Xrotation
                        JOINT LeftHandPinky4
                        {
                          OFFSET 1.549672 1e-06 0.0
                          CHANNELS 3 Zrotation Yrotation Xrotation
                          JOINT LeftHandPinkyEnd
                          {
                            OFFSET 1.952123 0.0 0.0
                            CHANNELS 3 Zrotation Yrotation Xrotation
                          }
                        }
                      }
                    }
                  }
                }
              }
            }
          }
          JOINT RightShoulder
          {
            OFFSET 23.161716 5.296122 -1.380114
            CHANNELS 3 Zrotation Yrotation Xrotation
            JOINT RightArm
            {
              OFFSET -16.027195 -2e-06 1.1e-05
              CHANNELS 3 Zrotation Yrotation Xrotation
              JOINT RightForeArm
              {
                OFFSET -28.736639 4e-06 2e-06
                CHANNELS 3 Zrotation Yrotation Xrotation
                JOINT RightHand
                {
                  OFFSET -27.133619 6e-06 0.0
                  CHANNELS 3 Zrotation Yrotation Xrotation
                  JOINT RightHandThumb1
                  {
                    OFFSET -2.274328 -3.351035 -0.83067
                    CHANNELS 3 Zrotation Yrotation Xrotation
                    JOINT RightHandThumb2
                    {
                      OFFSET -4.703594 -3e-06 2e-06
                      CHANNELS 3 Zrotation Yrotation Xrotation
                      JOINT RightHandThumb3
                      {
                        OFFSET -2.794935 -4e-06 -3e-06
                        CHANNELS 3 Zrotation Yrotation Xrotation
                        JOINT RightHandThumbEnd
                        {
                          OFFSET -3.183852 4e-06 1e-06
                          CHANNELS 3 Zrotation Yrotation Xrotation
                        }
                      }
                    }
                  }
                  JOINT RightHandIndex1
                  {
                    OFFSET -3.253496 -2.33755 -0.127667
                    CHANNELS 3 Zrotation Yrotation Xrotation
                    JOINT RightHandIndex2
                    {
                      OFFSET -6.344434 0.0 0.0
                      CHANNELS 3 Zrotation Yrotation Xrotation
                      JOINT RightHandIndex3
                      {
                        OFFSET -3.654871 0.0 -8e-06
                        CHANNELS 3 Zrotation Yrotation Xrotation
                        JOINT RightHandIndex4
                        {
                          OFFSET -2.327586 -1e-06 0.0
                          CHANNELS 3 Zrotation Yrotation Xrotation
                          JOINT RightHandIndexEnd
                          {
                            OFFSET -2.770001 3e-06 8e-06
                            CHANNELS 3 Zrotation Yrotation Xrotation
                          }
                        }
                      }
                    }
                  }
                  JOINT RightHandMiddle1
                  {
                    OFFSET -3.168223 -0.944764 0.411762
                    CHANNELS 3 Zrotation Yrotation Xrotation
                    JOINT RightHandMiddle2
                    {
                      OFFSET -6.266691 -1e-06 -4e-06
                      CHANNELS 3 Zrotation Yrotation Xrotation
                      JOINT RightHandMiddle3
                      {
                        OFFSET -4.348901 0.0 0.0
                        CHANNELS 3 Zrotation Yrotation Xrotation
                        JOINT RightHandMiddle4
                        {
                          OFFSET -3.00024 2e-06 -4e-06
                          CHANNELS 3 Zrotation Yrotation Xrotation
                          JOINT RightHandMiddleEnd
                          {
                            OFFSET -2.321477 -4e-06 -4e-06
                            CHANNELS 3 Zrotation Yrotation Xrotation
                          }
                        }
                      }
                    }
                  }
                  JOINT RightHandRing1
                  {
                    OFFSET -2.885654 0.293261 -0.119232
                    CHANNELS 3 Zrotation Yrotation Xrotation
                    JOINT RightHandRing2
                    {
                      OFFSET -6.032835 -1e-06 -4e-06
                      CHANNELS 3 Zrotation Yrotation Xrotation
                      JOINT RightHandRing3
                      {
                        OFFSET -4.33881 0.0 -4e-06
                        CHANNELS 3 Zrotation Yrotation Xrotation
                        JOINT RightHandRing4
                        {
                          OFFSET -2.654903 -4e-06 -4e-06
                          CHANNELS 3 Zrotation Yrotation Xrotation
                          JOINT RightHandRingEnd
                          {
                            OFFSET -1.935122 0.0 4e-06
                            CHANNELS 3 Zrotation Yrotation Xrotation
                          }
                        }
                      }
                    }
                  }
                  JOINT RightHandPinky1
                  {
                    OFFSET -2.866241 1.503904 -0.60527
                    CHANNELS 3 Zrotation Yrotation Xrotation
                    JOINT RightHandPinky2
                    {
                      OFFSET -5.553177 -2e-06 0.0
                      CHANNELS 3 Zrotation Yrotation Xrotation
                      JOINT RightHandPinky3
                      {
                        OFFSET -3.062664 -1e-06 -4e-06
                        CHANNELS 3 Zrotation Yrotation Xrotation
                        JOINT RightHandPinky4
                        {
                          OFFSET -1.546529 2e-06 4e-06
                          CHANNELS 3 Zrotation Yrotation Xrotation
                          JOINT RightHandPinkyEnd
                          {
                            OFFSET -1.952341 0.0 -4e-06
                            CHANNELS 3 Zrotation Yrotation Xrotation
                          }
                        }
                      }
                    }
                  }
                }
              }
            }
          }
        }
      }
    }
    JOINT LeftLeg
    {
      OFFSET -8.443107 2.567604 10.043214
      CHANNELS 3 Zrotation Yrotation Xrotation
      JOINT LeftShin
      {
        OFFSET 43.229198 1e-06 -1e-06
        CHANNELS 3 Zrotation Yrotation Xrotation
        JOINT LeftFoot
        {
          OFFSET 42.298611 1e-06 1e-06
          CHANNELS 3 Zrotation Yrotation Xrotation
          JOINT LeftToeBase
          {
            OFFSET 14.165858 1e-06 0.0
            CHANNELS 3 Zrotation Yrotation Xrotation
            JOINT LeftToeEnd
            {
              OFFSET 6.7141 -0.234461 0.0
              CHANNELS 3 Zrotation Yrotation Xrotation
            }
          }
        }
      }
    }
    JOINT RightLeg
    {
      OFFSET -8.303923 2.592729 -10.047278
      CHANNELS 3 Zrotation Yrotation Xrotation
      JOINT RightShin
      {
        OFFSET -43.369682 0.0 1e-06
        CHANNELS 3 Zrotation Yrotation Xrotation
        JOINT RightFoot
        {
          OFFSET -42.260784 4e-06 2e-06
          CHANNELS 3 Zrotation Yrotation Xrotation
          JOINT RightToeBase
          {
            OFFSET -14.222245 -2e-06 -1e-06
            CHANNELS 3 Zrotation Yrotation Xrotation
            JOINT RightToeEnd
            {
              OFFSET -6.660062 0.232574 -2e-06
              CHANNELS 3 Zrotation Yrotation Xrotation
            }
          }
        }
      }
    }
  }
}
MOTION
Frames: 4
Frame Time: 0.03333333333333333
0.0 0.0 0.0 0.0 -0.0 0.0 4.881604 49.327286 -0.559324 95.131424 -54.227871 82.462311 14.915492 -0.230219 -0.459424 -4.054696 -1.343054 -0.749768 23.262217 0.306879 -2.121089 13.222824 1.547915 3.405479 -2.81218 -0.895866 1.099921 -52.606884 3.483147 -1.868391 4e-06 -0.0 -0.0 -0.142976 -0.204117 0.244402 0.135581 -0.339236 0.363723 0.092418 -0.061621 0.13406 -12.16036 -53.845932 12.281394 83.502991 -23.866922 -73.53804 38.105854 -0.199749 0.435024 44.180508 58.212452 47.588951 17.636625 -26.322729 52.411182 -19.46665 -14.395597 29.410378 -1e-06 -8.77482 -3e-06 14.715404 -18.272999 7.376183 -0.609775 -1.795653 -3.889327 -4.807088 -11.046807 -2.937847 4e-06 -20.976015 2e-06 -5.019971 -25.033552 -4.031878 6e-06 -1e-06 2e-06 -10.634532 -5.686967 -3.565587 10.57327 -17.922953 -3.113899 2e-06 -13.821211 2e-06 -0.501777 -31.181498 -4.027014 -11.046341 -58.171894 6.632407 -13.982712 -7.150197 -2.875041 13.772726 -8.401489 -3.218241 0.34773 -34.211544 0.771659 -0.963029 -17.733366 2.621019 -1e-06 1e-06 -0.0 -17.346416 -20.095207 -4.201779 21.757555 -1.638373 3.866428 1e-06 -6.338821 2e-06 -1.697588 -22.591738 -6.194004 -1e-06 -6e-06 -2e-06 -165.974548 -71.89698 -10.327699 80.45932 -35.677948 -73.448502 57.522781 0.807559 -0.635133 29.535299 42.053558 47.224323 22.182116 -20.375898 49.933331 -16.701813 -16.743528 28.476538 -4e-06 -12.690601 -3e-06 17.239248 -18.0791 1.666464 -0.10592 -1.513855 -4.275882 -5.039041 -5.61287 -2.953558 3e-06 -11.020525 -1e-06 -6.111297 -15.895334 -3.84047 -1e-06 -0.0 -0.0 -10.28337 -5.68029 -4.341839 11.02829 -11.302404 -2.372638 -1.384269 -14.238581 -6.320123 -0.62544 -26.924189 -3.827598 -3.221403 -50.021793 -4.322569 -13.708527 -7.363479 -3.720941 18.141146 -14.052739 -3.242673 5e-06 -18.787273 -4e-06 -0.429714 -8.456047 2.555505 -1e-06 -1e-06 -1e-06 -15.923536 -20.09449 -5.473584 30.419214 -7.190826 1.735927 2e-06 -8.162927 -1e-06 -1.861904 -22.861473 -6.167943 -1e-06 -3e-06 -1e-06 148.193573 -13.608955 -6.903244 79.978897 -4.631818 1.782324 -41.349316 11.715734 4.312651 -12.128164 1.430364 2.143352 -1.000002 -0.0 0.0 -63.853157 -3.820208 -6.920233 109.752296 -0.373132 0.136979 -32.0126 29.810312 2.593756 -3.524269 0.364192 1.672005 -1.000004 -0.0 1e-06 
0.0 0.0 0.0 0.0 -0.0 0.0 4.543045 49.827236 1.637034 94.330299 -54.318035 83.361374 15.058448 -0.341367 -0.32982 -4.113996 -1.487575 -0.408048 23.098478 -0.044428 -2.028447 13.320814 1.520453 3.236302 -2.853951 -0.460801 0.888361 -53.288048 3.888836 -2.523471 8e-06 -0.0 0.0 -0.138371 -0.206563 0.241219 0.129773 -0.3545 0.344112 0.090579 -0.049695 0.14011 -11.909525 -54.221928 11.982022 86.158417 -22.383957 -73.416862 34.787457 0.226 0.568826 49.325993 58.177563 52.145054 17.636618 -26.322721 52.411182 -19.466656 -14.395597 29.410385 -1e-06 -8.774819 -1e-06 14.611696 -18.468176 7.25213 -0.609775 -1.795653 -3.889326 -4.807088 -11.046809 -2.937849 5e-06 -20.976015 0.0 -5.019969 -25.033556 -4.03188 5e-06 -2e-06 -1e-06 -10.634529 -5.68697 -3.565587 10.573269 -17.922949 -3.113901 2e-06 -13.821205 2e-06 -0.501776 -31.181498 -4.027018 -11.062127 -58.213913 6.654345 -13.982709 -7.150198 -2.875041 13.772724 -8.401488 -3.218242 0.347731 -34.211544 0.771654 -0.963029 -17.733366 2.621018 -1e-06 -0.0 1e-06 -17.346413 -20.095215 -4.201779 21.757551 -1.638373 3.866426 1e-06 -6.33882 2e-06 -1.697587 -22.591736 -6.194007 -1e-06 -7e-06 -4e-06 -164.436951 -71.366684 -12.040969 73.10218 -31.226751 -71.459633 61.101807 0.551129 -1.28112 23.917587 40.267746 41.681747 22.182114 -20.375896 49.933319 -16.701807 -16.743528 28.476532 -2e-06 -12.690598 -3e-06 17.076815 -18.098654 2.288397 -0.105919 -1.513857 -4.27588 -5.039037 -5.612868 -2.953557 3e-06 -11.02052 -2e-06 -6.111298 -15.89533 -3.840469 -1e-06 -1e-06 -0.0 -10.283369 -5.680287 -4.341836 11.028291 -11.302402 -2.372632 -1.384271 -14.238579 -6.320121 -0.625439 -26.924179 -3.8276 -3.161607 -50.759411 -4.203857 -13.708523 -7.363474 -3.720939 18.141146 -14.052736 -3.242674 5e-06 -18.787266 -4e-06 -0.429712 -8.456041 2.555503 0.0 1e-06 0.0 -15.923532 -20.094482 -5.473586 30.41921 -7.190821 1.735928 2e-06 -8.162928 0.0 -1.861903 -22.861469 -6.167939 -1e-06 -3e-06 -1e-06 144.310379 -14.67456 -5.154789 85.159897 -4.478595 1.435974 -41.702335 10.781574 3.695593 -10.386124 1.522405 2.245284 -0.999999 0.0 0.0 -60.814571 -3.452676 -7.544751 106.45179 -0.315465 0.163764 -31.746109 29.746431 2.424771 -3.409102 0.34124 1.703528 -1.000002 -2e-06 -0.0 
0.0 0.0 0.0 0.0 -0.0 0.0 4.141332 50.248695 3.883597 94.420998 -54.272301 83.673492 15.187353 -0.676967 -0.235002 -4.061308 -1.568603 -0.007864 23.036081 -0.479531 -1.955452 13.342407 1.477412 3.050821 -2.936301 -0.142099 0.425121 -54.46228 4.07904 -3.284848 8e-06 0.0 -0.0 -0.131716 -0.160263 0.197042 0.104099 -0.319854 0.288431 0.081816 0.008154 0.102751 -11.783007 -54.898106 11.642735 88.52475 -21.221844 -73.32151 32.278889 0.310597 0.552233 53.404957 57.993225 56.273056 17.636629 -26.322744 52.411224 -19.466663 -14.395604 29.410395 -1e-06 -8.774822 -1e-06 14.726624 -18.58317 7.088532 -0.609777 -1.795654 -3.88933 -4.80709 -11.046813 -2.93785 4e-06 -20.976021 -1e-06 -5.019969 -25.03356 -4.031883 5e-06 -2e-06 0.0 -10.634535 -5.686972 -3.565589 10.573274 -17.922955 -3.113901 2e-06 -13.821209 3e-06 -0.501779 -31.181505 -4.027015 -10.907432 -58.362068 6.702708 -13.982716 -7.150199 -2.875043 13.772729 -8.40149 -3.218243 0.347733 -34.211555 0.771656 -0.963028 -17.73337 2.62102 -2e-06 1e-06 0.0 -17.346422 -20.095221 -4.201783 21.757559 -1.638375 3.866428 1e-06 -6.338823 2e-06 -1.697588 -22.591743 -6.194009 -1e-06 -7e-06 -4e-06 -162.256165 -70.238174 -14.469679 65.595642 -24.976105 -69.918907 60.104588 0.684389 -1.428858 17.179499 38.152351 35.007427 22.182114 -20.375896 49.933327 -16.701817 -16.74353 28.476534 -4e-06 -12.690602 -0.0 17.100327 -18.182207 2.57762 -0.105919 -1.513855 -4.275882 -5.039037 -5.61287 -2.953557 2e-06 -11.020524 -3e-06 -6.111298 -15.895334 -3.84047 -1e-06 2e-06 -1e-06 -10.283369 -5.680288 -4.34184 11.028296 -11.302404 -2.372633 -1.38427 -14.238585 -6.320121 -0.625438 -26.924191 -3.8276 -3.259242 -51.136467 -3.980589 -13.708526 -7.363474 -3.720939 18.14115 -14.052739 -3.242676 7e-06 -18.78727 -3e-06 -0.429712 -8.456042 2.555504 0.0 0.0 0.0 -15.923532 -20.094482 -5.473584 30.419214 -7.190823 1.735924 1e-06 -8.162929 -0.0 -1.861904 -22.861471 -6.167945 -0.0 -3e-06 -1e-06 139.224976 -15.007432 -3.091511 91.490623 -4.147219 1.083032 -42.365593 9.80795 3.431728 -9.583194 1.562354 2.313341 -0.999998 -0.0 -0.0 -57.721405 -3.616037 -8.036304 103.214058 -0.401093 0.237068 -31.505972 29.948734 2.896492 -3.479385 0.332303 1.69332 -1.000001 -2e-06 1e-06 
0.0 0.0 0.0 0.0 -0.0 0.0 3.716033 50.595928 6.076194 95.129929 -54.090332 83.358559 15.318267 -1.053867 -0.150266 -3.924522 -1.65339 0.434856 23.082283 -0.996648 -1.837351 13.175897 1.330481 2.81195 -2.993803 0.075209 -0.056727 -55.816067 4.07632 -4.063521 7e-06 -0.0 0.0 -0.125772 -0.120336 0.158957 0.11115 -0.289822 0.247112 0.107598 0.056413 0.065813 -12.133215 -55.769135 11.68942 90.774872 -20.520647 -73.315147 30.432667 0.232562 0.483001 57.270428 57.649387 60.492649 17.636641 -26.322744 52.411201 -19.466665 -14.395602 29.410395 -1e-06 -8.774825 -2e-06 14.747395 -18.585861 6.985951 -0.609775 -1.795655 -3.889328 -4.807091 -11.046812 -2.93785 4e-06 -20.976025 2e-06 -5.019974 -25.033562 -4.03188 5e-06 -1e-06 0.0 -10.634538 -5.686972 -3.565587 10.573279 -17.922956 -3.113901 3e-06 -13.821213 4e-06 -0.501779 -31.181511 -4.027015 -10.861437 -58.357635 6.782659 -13.982719 -7.150199 -2.875041 13.772735 -8.401493 -3.218244 0.347733 -34.211559 0.771656 -0.963028 -17.733374 2.62102 -1e-06 -0.0 -1e-06 -17.346426 -20.095221 -4.201781 21.757566 -1.638379 3.86643 1e-06 -6.338825 1e-06 -1.697587 -22.591747 -6.194009 -1e-06 -7e-06 -2e-06 -160.005569 -68.676384 -17.030361 58.723667 -18.165483 -69.254707 55.792606 0.767748 -1.240541 11.247897 35.633801 27.734165 22.182114 -20.375895 49.933327 -16.701817 -16.74353 28.476534 -4e-06 -12.6906 0.0 17.067629 -18.222361 2.696791 -0.105919 -1.513856 -4.275883 -5.03904 -5.612871 -2.953556 3e-06 -11.020521 -1e-06 -6.111295 -15.89533 -3.840471 1e-06 2e-06 2e-06 -10.283369 -5.680289 -4.34184 11.028296 -11.302404 -2.372633 -1.384267 -14.238585 -6.320123 -0.625438 -26.924192 -3.827602 -3.392523 -51.158512 -3.811317 -13.708524 -7.363476 -3.72094 18.141153 -14.052737 -3.242674 6e-06 -18.78727 -4e-06 -0.429712 -8.456043 2.555504 -0.0 1e-06 -0.0 -15.923536 -20.094484 -5.473585 30.419222 -7.190827 1.735925 3e-06 -8.162927 -1e-06 -1.8619 -22.861469 -6.167942 0.0 -3e-06 -1e-06 133.190826 -14.882859 -0.986189 98.505936 -3.615361 0.766926 -43.183502 9.748788 3.825682 -9.387953 1.591778 2.32279 -0.999997 -0.0 0.0 -54.704777 -3.958252 -8.283029 100.106293 -0.551414 0.307246 -31.215252 30.327682 3.257713 -3.52108 0.284661 1.68609 -1.000002 -0.0 0.0 
